<svg width="16" height="10" viewBox="0 0 16 10" fill="none" xmlns="http://www.w3.org/2000/svg">
<path d="M2 4C0.899999 4 -1.35505e-07 3.1 -8.74228e-08 2C-3.93403e-08 0.899999 0.9 -6.60042e-07 2 -6.11959e-07C3.1 -5.63877e-07 4 0.899999 4 2C4 3.1 3.1 4 2 4ZM10 2C10 0.9 9.1 -3.01609e-07 8 -3.49691e-07C6.9 -3.97774e-07 6 0.9 6 2C6 3.1 6.9 4 8 4C9.1 4 10 3.1 10 2ZM16 2C16 0.9 15.1 -3.93402e-08 14 -8.74228e-08C12.9 -1.35505e-07 12 0.9 12 2C12 3.1 12.9 4 14 4C15.1 4 16 3.1 16 2ZM12 8C12 9.1 12.9 10 14 10C15.1 10 16 9.1 16 8C16 6.9 15.1 6 14 6C12.9 6 12 6.9 12 8ZM10 8C10 6.9 9.1 6 8 6C6.9 6 6 6.9 6 8C6 9.1 6.9 10 8 10C9.1 10 10 9.1 10 8ZM4 8C4 6.9 3.1 6 2 6C0.899999 6 -3.01609e-07 6.9 -3.49691e-07 8C-3.97774e-07 9.1 0.899999 10 2 10C3.1 10 4 9.1 4 8Z" fill="#2E3F50"/>
</svg>
